<?xml version="1.0" encoding="UTF-8" standalone="no"?>
<!-- Created with Inkscape (http://www.inkscape.org/) -->

<svg
   width="32"
   height="32"
   viewBox="0 0 32 32"
   version="1.1"
   id="SVGRoot"
   sodipodi:docname="C:\Users\viraj\AppData\Local\Temp\ink_ext_XXXXXX.svgRX1PQ1"
   xml:space="preserve"
   inkscape:export-filename="bitmap.svg"
   inkscape:export-xdpi="96"
   inkscape:export-ydpi="96"
   xmlns:inkscape="http://www.inkscape.org/namespaces/inkscape"
   xmlns:sodipodi="http://sodipodi.sourceforge.net/DTD/sodipodi-0.dtd"
   xmlns="http://www.w3.org/2000/svg"
   xmlns:svg="http://www.w3.org/2000/svg"><sodipodi:namedview
     id="namedview257"
     pagecolor="#ffffff"
     bordercolor="#000000"
     borderopacity="0.25"
     inkscape:showpageshadow="2"
     inkscape:pageopacity="0.0"
     inkscape:pagecheckerboard="0"
     inkscape:deskcolor="#d1d1d1"
     inkscape:document-units="px"
     showgrid="true"
     inkscape:zoom="0.25"
     inkscape:cx="60.0"
     inkscape:cy="60.0"
     inkscape:window-width="1920"
     inkscape:window-height="1017"
     inkscape:window-x="-8"
     inkscape:window-y="317"
     inkscape:window-maximized="0"
     inkscape:current-layer="layer1"><inkscape:grid
       type="xygrid"
       id="grid263" /></sodipodi:namedview><defs
     id="defs252" /><g
     inkscape:label="Layer 1"
     inkscape:groupmode="layer"
     id="layer1"><path
       style="fill:#000000;stroke-width:0.0621835"
       d="M 15.686502,30.401374 C 13.707352,30.126255 11.691774,28.028654 10.458935,24.961075 9.7887027,23.293385 9.3687697,21.30944 9.2732447,19.359361 l -0.04188,-0.855022 h 6.7971493 6.797149 l -0.04188,0.855022 c -0.181136,3.697793 -1.490777,7.234088 -3.436173,9.278368 -1.060891,1.114814 -2.056222,1.674625 -3.132543,1.761859 -0.188105,0.01525 -0.425956,0.01605 -0.528559,0.0018 z m 1.180268,-2.59729 c 0.675928,-0.3307 1.496146,-1.337819 2.016209,-2.475636 0.355892,-0.778635 0.355592,-0.771563 0.02198,-0.516967 -0.526942,0.40214 -1.217107,0.781121 -1.726058,0.947806 -0.408685,0.133847 -0.613995,0.162924 -1.150394,0.162924 -0.536399,0 -0.741709,-0.02908 -1.150394,-0.162924 -0.508951,-0.166685 -1.199116,-0.545666 -1.726058,-0.947806 -0.333352,-0.254401 -0.333608,-0.261037 0.01971,0.512056 0.603601,1.320721 1.456735,2.298076 2.255053,2.583399 0.439626,0.157123 0.98874,0.117902 1.439944,-0.102852 z m -2.221598,-5.37946 c 0.667795,-0.307807 0.673015,-0.325371 0.222552,-0.748776 -0.829564,-0.779732 -1.753036,-0.973229 -2.925148,-0.612912 -0.21231,0.06527 -0.399678,0.140765 -0.416371,0.167776 -0.04567,0.0739 0.470517,0.704924 0.792415,0.968696 0.441248,0.361568 0.790801,0.476435 1.378212,0.452891 0.406512,-0.01629 0.580215,-0.05799 0.94834,-0.227675 z m 4.495295,0.126302 c 0.17327,-0.06584 0.442378,-0.224051 0.598019,-0.351587 0.32183,-0.263716 0.837999,-0.894735 0.792331,-0.968627 -0.04993,-0.08079 -0.775072,-0.283309 -1.18122,-0.329888 -0.471099,-0.05403 -1.00835,0.04056 -1.446734,0.254717 -0.401099,0.195942 -1.107613,0.837746 -1.04095,0.94561 0.05807,0.09396 0.611567,0.378226 0.938826,0.482162 0.378112,0.120087 0.976521,0.105621 1.339728,-0.03239 z M 7.7277047,15.737441 c -0.70454,-1.043274 -1.314714,-1.895324 -1.355943,-1.893446 -0.04123,0.0019 -0.956412,0.331248 -2.03374,0.731933 l -1.958779,0.728518 -0.03688,0.340731 c -0.07678,0.709284 -0.443558,1.073608 -1.080838,1.073608 -0.99544705,0 -1.52074705,-1.168714 -0.83880605,-1.86622 0.105491,-0.107898 0.317674,-0.24425 0.471519,-0.303004 0.23971005,-0.09155 0.32577905,-0.09619 0.60176605,-0.03249 0.177127,0.04089 0.329516,0.05231 0.338643,0.02538 0.04601,-0.135727 2.827411,-5.7766985 2.868679,-5.8179789 0.03907,-0.039087 2.985855,0.9220338 5.7438323,1.8734049 l 0.543713,0.187555 3.922853,-4.5197708 c 2.157569,-2.4858738 3.957422,-4.5443305 3.999672,-4.5743483 0.05191,-0.036879 0.946745,0.5126186 2.759431,1.6944991 1.475437,0.9619922 2.699518,1.7490768 2.72018,1.7490768 0.02066,0 0.14787,-0.088642 0.282685,-0.1969828 0.323374,-0.2598704 0.790518,-0.3115388 1.15141,-0.1273516 0.29819,0.1521866 0.427856,0.2903718 0.552586,0.5888927 0.352272,0.8431068 -0.374399,1.6860694 -1.303253,1.5118158 -0.241176,-0.045245 -0.6849,-0.4010266 -0.747965,-0.5997255 -0.02087,-0.065741 -0.08502,-0.1200607 -0.142568,-0.1207093 -0.188407,-0.00212 -3.958652,0.7021137 -4.012044,0.749403 -0.05025,0.044507 -0.302758,4.1722079 -0.25797,4.2169959 0.01216,0.01216 1.678992,-0.541891 3.704074,-1.2312189 2.025083,-0.6893285 3.704239,-1.2308388 3.731457,-1.2033562 0.04597,0.046416 2.819387,5.6642411 2.867315,5.8080231 0.01477,0.04431 0.116554,0.04108 0.320013,-0.01015 0.522994,-0.131691 1.051131,0.113015 1.284542,0.595178 0.370288,0.764914 -0.167086,1.603078 -1.027785,1.603078 -0.637612,0 -1.004166,-0.364396 -1.080837,-1.074476 l -0.03689,-0.3416 -1.958778,-0.728917 C 26.64167,14.172883 25.722138,13.8509 25.675595,13.858269 c -0.04655,0.0074 -0.651464,0.852875 -1.344265,1.878902 l -1.259638,1.865504 -7.031503,0.01581 -7.0315033,0.01581 z"
       id="path284" /></g></svg>
