<?xml version="1.0" encoding="UTF-8"?>
<svg width="752pt" height="752pt" version="1.1" viewBox="0 0 752 752" xmlns="http://www.w3.org/2000/svg">
 <g>
  <path d="m549.8 331.01c-4.7344-1.4219-9.4727-1.8945-14.207-1.4219l4.2617-11.367c1.8945-5.6836 0.47266-12.312-4.2617-16.102l-9.9453-8.0508 5.6836-16.102c0.94531-1.8945 0.47266-4.2617-0.94531-6.1562l-5.2109-6.1562 8.9961-25.574c0.94531-3.3164-0.47266-6.6289-3.7891-7.5781l-11.84-4.2617c-3.3164-0.94531-6.6289 0.47266-7.5781 3.7891l-34.57 96.609c-1.8945 5.2109 1.8945 11.367 6.1562 12.785 4.2617 1.4219 10.891-0.94531 10.891-0.94531l15.629 15.629c-8.9961 22.258-23.68 44.988-31.73 48.777-4.7344-2.3672-13.734-10.418-19.418-15.629-19.891-17.996-44.516-40.254-77.668-40.254h-6.1562l-18.469 63.461-9.4727-41.676h0.94531c3.3164 0 5.6836-2.8398 5.6836-5.6836v-10.891c0-3.3164-2.8398-5.6836-5.6836-5.6836h-13.734c-3.3164 0-5.6836 2.8398-5.6836 5.6836v10.891c0 3.3164 2.8398 5.6836 5.6836 5.6836l0.007812 0.003907-9.4727 41.676-18.469-63.461h-6.1562c-53.043 0-73.406 56.828-84.77 87.141-1.4219 3.7891-2.8398 8.0508-4.2617 10.891-11.367 27.469-26.051 99.453-27.469 107.5-3.3164 16.574 7.5781 32.203 23.68 35.52 1.8945 0.47266 3.7891 0.47266 5.6836 0.47266 14.207 0 26.52-9.9453 29.363-24.152 5.6836-28.414 17.051-79.562 23.68-96.137 1.4219-3.3164 2.8398-8.0508 4.7344-12.312l2.3672 115.55c0.47266 15.156 12.785 27.469 27.941 27.469h77.668c15.156 0 27.941-11.84 27.941-27.469l2.8398-146.81c2.8398 2.3672 5.2109 4.7344 8.0508 7.1055 14.68 13.262 29.836 26.992 48.777 30.781 61.566 12.312 96.137-77.195 102.29-95.191 5.6836-15.633-2.3672-32.68-17.996-38.363zm-26.047-4.2617-8.0508-5.6836 5.2109-14.207 6.6289 5.2109c0.47266 0.47266 0.94531 1.4219 0.47266 1.8945z"/>
  <path d="m270.39 249.55c-0.94531 4.7344-1.4219 8.9961-1.4219 14.207 0 38.832 31.258 70.09 70.09 70.09s70.562-31.73 70.562-70.09c0-4.7344-0.47266-9.4727-1.4219-14.207-28.414 5.6836-62.512 6.1562-69.145 6.1562-6.1523 0-40.25-0.47266-68.664-6.1562z"/>
  <path d="m339.54 247.19c55.883 0 100.87-10.418 100.87-23.68 0-7.5781-15.156-14.207-38.359-18.469l2.3672 9.9453c0.47266 2.3672-0.94531 4.7344-2.8398 5.2109h-0.94531c-1.8945 0-3.7891-1.4219-3.7891-3.3164l-9.4727-41.203c-1.8945-8.0508-9.9453-13.262-17.996-11.367l-15.629 3.7891c-8.5234 1.8945-17.996 1.8945-26.52 0l-15.629-3.7891c-8.0508-1.8945-16.102 3.3164-17.996 11.367l-9.4727 41.203c-0.47266 2.3672-2.8398 3.7891-5.2109 3.3164-2.3672-0.47266-3.7891-2.8398-3.3164-5.2109l2.3672-9.9453c-23.68 4.2617-38.359 10.891-38.359 18.469-0.94141 13.262 44.047 23.68 99.93 23.68z"/>
  <path d="m523.29 215.46c-0.47266 2.8398 3.3164 4.2617 4.7344 1.8945 4.7344-6.6289 9.4727-16.102 8.9961-24.152-0.94531-14.68-9.9453-18.941-10.418-26.52 0-2.8398 0-8.0508 0.94531-12.785 0.47266-2.8398-3.7891-4.2617-5.2109-1.4219-3.3164 6.6289-6.6289 14.207-6.1562 19.891 0.47266 10.891 8.0508 12.785 8.9961 20.836 0.48047 5.2109-0.46484 14.68-1.8867 22.258z"/>
 </g>
</svg>
